<?xml version="1.0" standalone="no"?>
<!DOCTYPE svg PUBLIC "-//W3C//DTD SVG 20010904//EN"
 "http://www.w3.org/TR/2001/REC-SVG-20010904/DTD/svg10.dtd">
<svg version="1.0" xmlns="http://www.w3.org/2000/svg"
 width="298.000000pt" height="298.000000pt" viewBox="0 0 298.000000 298.000000"
 preserveAspectRatio="xMidYMid meet">
<metadata>
Created by potrace 1.11, written by Peter Selinger 2001-2013
</metadata>
<g transform="translate(0.000000,298.000000) scale(0.100000,-0.100000)"
fill="#000000" stroke="none">
<path d="M2553 2194 c-43 -22 -55 -58 -56 -169 l0 -95 -99 0 c-135 0 -178 -25
-177 -105 0 -72 45 -106 140 -104 35 0 81 1 101 0 l37 -1 -2 -82 c0 -46 2 -99
6 -118 13 -61 85 -92 144 -63 47 22 55 45 55 159 0 57 3 104 6 105 4 0 53 1
110 2 103 2 104 2 133 35 45 51 36 122 -21 155 -21 13 -53 17 -128 17 l-100 0
0 105 c-1 118 -12 146 -64 164 -40 14 -47 14 -85 -5z"/>
<path d="M2005 1906 c-90 -22 -135 -55 -170 -126 -20 -39 -26 -76 -29 -169
l-1 -66 -57 -1 c-32 0 -61 -4 -65 -8 -5 -4 -8 -43 -9 -87 l0 -79 66 0 67 0 1
-272 c0 -150 1 -281 1 -290 1 -16 13 -18 105 -18 l103 0 1 267 c0 148 1 278 1
291 1 21 4 22 100 22 110 0 131 -9 131 -58 2 -386 5 -459 23 -485 30 -46 70
-54 230 -49 l47 2 0 85 0 85 -34 0 c-19 0 -38 6 -43 13 -4 6 -8 132 -8 279 -1
240 -2 270 -18 285 -15 16 -41 18 -222 18 l-205 0 -1 30 c-4 113 27 153 124
158 29 2 36 5 30 17 -17 39 -15 100 6 135 l20 35 -72 -1 c-40 0 -94 -6 -122
-13z"/>
<path d="M490 1563 c-45 -7 -128 -44 -151 -69 -25 -27 -39 -31 -39 -11 0 7
-14 26 -30 42 -30 29 -33 30 -141 29 -70 0 -113 -4 -117 -11 -4 -6 -6 -35 -5
-65 1 -29 2 -62 2 -73 1 -17 8 -21 38 -23 21 -2 40 -8 44 -14 4 -6 7 -134 6
-284 0 -151 2 -277 6 -280 5 -5 102 -8 179 -5 l27 1 0 224 c0 123 4 232 7 242
33 93 137 138 229 100 61 -26 69 -57 71 -261 1 -100 5 -199 8 -222 8 -46 38
-79 82 -92 33 -9 200 -8 210 1 3 4 6 42 7 86 l2 79 -40 1 c-21 1 -42 5 -47 10
-4 4 -8 82 -8 174 -1 92 -6 186 -11 210 -25 109 -91 182 -186 202 -40 9 -111
13 -143 9z"/>
<path d="M1230 1562 c-87 -12 -181 -60 -233 -119 -113 -128 -123 -378 -21
-525 65 -93 206 -150 354 -143 221 11 357 150 364 370 7 202 -77 339 -241 394
-59 20 -167 31 -223 23z m157 -195 c63 -33 94 -100 94 -203 0 -157 -99 -242
-239 -205 -121 33 -166 241 -80 364 43 61 151 82 225 44z"/>
</g>
</svg>
